<?xml version="1.0" encoding="UTF-8"?>
<svg
        width="820"
        height="200"
        viewBox="0 0 600 200"
        version="1.1"
        xmlns="http://www.w3.org/2000/svg"
        aria-labelledby="title desc"
        role="img"
>


    <rect width="100%" height="100%" fill="transparent" />

    <g transform="translate(40,24)" aria-hidden="true">
        <circle cx="76" cy="76" r="76" fill="#3F72AF" />

        <path
                d="M76 76 L136 76 A60 60 0 0 0 106 20 Z"
                fill="#F9F7F7"
        />

        <path
                d="M76 76 L122 76 A46 46 0 0 0 98 38 Z"
                fill="#3F72AF"
                opacity="0.12"
        />

        <g transform="translate(44,88)">
            <rect x="0" y="-22" width="10" height="22" rx="2" ry="2" fill="#F9F7F7" />
            <rect x="16" y="-34" width="10" height="34" rx="2" ry="2" fill="#F9F7F7" />
            <rect x="32" y="-14" width="10" height="14" rx="2" ry="2" fill="#F9F7F7" />
        </g>

        <ellipse cx="56" cy="56" rx="36" ry="36" fill="#ffffff" opacity="0.03" />
    </g>

    <g transform="translate(220,70)">
        <text
                x="0"
                y="0"
                font-family="Inter, system-ui, -apple-system, 'Segoe UI', Roboto, 'Helvetica Neue', Arial"
                font-weight="700"
                font-size="60"
                fill="#3F72AF"
                dominant-baseline="hanging"
        >
            Survey Visualizer
        </text>

        <text
                x="0"
                y="65"
                font-family="Inter, system-ui, -apple-system, 'Segoe UI', Roboto, 'Helvetica Neue', Arial"
                font-weight="500"
                font-size="30"
                fill="#6B7280"
                dominant-baseline="hanging"
                opacity="0.9"
        >
            Simple insights from your surveys
        </text>
    </g>
</svg>
